<svg width="259" height="49" viewBox="0 0 259 49" fill="none" xmlns="http://www.w3.org/2000/svg">
<path d="M78.7207 28.6484V38H71.7773V12.3008H80.1973C87.1816 12.3008 90.6738 14.832 90.6738 19.8945C90.6738 22.8711 89.2207 25.1738 86.3145 26.8027L93.8027 38H85.9277L80.4785 28.6484H78.7207ZM78.7207 23.4277H80.0215C82.4473 23.4277 83.6602 22.3555 83.6602 20.2109C83.6602 18.4414 82.4707 17.5566 80.0918 17.5566H78.7207V23.4277ZM105.352 38.3516C102.035 38.3516 99.457 37.4727 97.6172 35.7148C95.7891 33.9453 94.875 31.4316 94.875 28.1738C94.875 24.8105 95.7246 22.2324 97.4238 20.4395C99.123 18.6348 101.549 17.7324 104.701 17.7324C107.701 17.7324 110.016 18.5176 111.645 20.0879C113.285 21.6465 114.105 23.8965 114.105 26.8379V29.8965H101.818C101.865 31.0098 102.27 31.8828 103.031 32.5156C103.805 33.1484 104.854 33.4648 106.178 33.4648C107.385 33.4648 108.492 33.3535 109.5 33.1309C110.52 32.8965 111.621 32.5039 112.805 31.9531V36.8926C111.727 37.4434 110.613 37.8242 109.465 38.0352C108.316 38.2461 106.945 38.3516 105.352 38.3516ZM104.947 22.4082C104.139 22.4082 103.459 22.666 102.908 23.1816C102.369 23.6855 102.053 24.4824 101.959 25.5723H107.865C107.842 24.6113 107.566 23.8438 107.039 23.2695C106.523 22.6953 105.826 22.4082 104.947 22.4082ZM130.98 38L129.662 35.3633H129.521C128.596 36.5117 127.652 37.2969 126.691 37.7188C125.73 38.1406 124.488 38.3516 122.965 38.3516C121.09 38.3516 119.613 37.7891 118.535 36.6641C117.457 35.5391 116.918 33.957 116.918 31.918C116.918 29.7969 117.656 28.2207 119.133 27.1895C120.609 26.1465 122.748 25.5605 125.549 25.4316L128.871 25.3262V25.0449C128.871 23.4043 128.062 22.584 126.445 22.584C124.992 22.584 123.146 23.0762 120.908 24.0605L118.922 19.5254C121.242 18.3301 124.172 17.7324 127.711 17.7324C130.266 17.7324 132.24 18.3652 133.635 19.6309C135.041 20.8965 135.744 22.666 135.744 24.9395V38H130.98ZM125.883 33.5C126.715 33.5 127.424 33.2363 128.01 32.709C128.607 32.1816 128.906 31.4961 128.906 30.6523V29.1055L127.324 29.1758C125.062 29.2578 123.932 30.0898 123.932 31.6719C123.932 32.8906 124.582 33.5 125.883 33.5ZM146.607 38.3516C145.189 38.3516 143.947 37.9473 142.881 37.1387C141.826 36.3301 141.006 35.1406 140.42 33.5703C139.846 32 139.559 30.166 139.559 28.0684C139.559 24.834 140.209 22.3027 141.51 20.4746C142.811 18.6465 144.598 17.7324 146.871 17.7324C147.984 17.7324 148.957 17.9551 149.789 18.4004C150.633 18.8457 151.4 19.5957 152.092 20.6504H152.232C152.01 19.0918 151.898 17.5332 151.898 15.9746V10.6484H158.824V38H153.639L152.162 35.4863H151.898C150.715 37.3965 148.951 38.3516 146.607 38.3516ZM149.42 32.9199C150.521 32.9199 151.295 32.5742 151.74 31.8828C152.197 31.1914 152.443 30.125 152.479 28.6836V28.1387C152.479 26.3809 152.227 25.1328 151.723 24.3945C151.219 23.6445 150.428 23.2695 149.35 23.2695C148.447 23.2695 147.744 23.6973 147.24 24.5527C146.748 25.3965 146.502 26.6035 146.502 28.1738C146.502 29.7207 146.754 30.8984 147.258 31.707C147.762 32.5156 148.482 32.9199 149.42 32.9199ZM175.189 38L169.934 19.4902H169.775C170.021 22.6426 170.145 25.0918 170.145 26.8379V38H163.992V12.3008H173.238L178.6 30.5469H178.74L183.996 12.3008H193.26V38H186.879V26.7324C186.879 26.1465 186.885 25.4961 186.896 24.7812C186.92 24.0664 187.002 22.3145 187.143 19.5254H186.984L181.799 38H175.189ZM217.412 27.998C217.412 31.2559 216.533 33.7988 214.775 35.627C213.029 37.4434 210.58 38.3516 207.428 38.3516C204.404 38.3516 201.996 37.4199 200.203 35.5566C198.422 33.6934 197.531 31.1738 197.531 27.998C197.531 24.752 198.404 22.2324 200.15 20.4395C201.908 18.6348 204.369 17.7324 207.533 17.7324C209.49 17.7324 211.219 18.1484 212.719 18.9805C214.219 19.8125 215.373 21.0078 216.182 22.5664C217.002 24.1133 217.412 25.9238 217.412 27.998ZM204.51 27.998C204.51 29.709 204.738 31.0156 205.195 31.918C205.652 32.8086 206.42 33.2539 207.498 33.2539C208.564 33.2539 209.314 32.8086 209.748 31.918C210.193 31.0156 210.416 29.709 210.416 27.998C210.416 26.2988 210.193 25.0156 209.748 24.1484C209.303 23.2812 208.541 22.8477 207.463 22.8477C206.408 22.8477 205.652 23.2812 205.195 24.1484C204.738 25.0039 204.51 26.2871 204.51 27.998ZM233.373 17.7324C233.971 17.7324 234.539 17.7793 235.078 17.873L235.465 17.9434L234.85 24.4297C234.287 24.2891 233.508 24.2188 232.512 24.2188C231.012 24.2188 229.922 24.5645 229.242 25.2559C228.562 25.9355 228.223 26.9199 228.223 28.209V38H221.35V18.084H226.465L227.537 21.2656H227.871C228.445 20.2109 229.242 19.3613 230.262 18.7168C231.293 18.0605 232.33 17.7324 233.373 17.7324ZM247.875 38.3516C244.559 38.3516 241.98 37.4727 240.141 35.7148C238.312 33.9453 237.398 31.4316 237.398 28.1738C237.398 24.8105 238.248 22.2324 239.947 20.4395C241.646 18.6348 244.072 17.7324 247.225 17.7324C250.225 17.7324 252.539 18.5176 254.168 20.0879C255.809 21.6465 256.629 23.8965 256.629 26.8379V29.8965H244.342C244.389 31.0098 244.793 31.8828 245.555 32.5156C246.328 33.1484 247.377 33.4648 248.701 33.4648C249.908 33.4648 251.016 33.3535 252.023 33.1309C253.043 32.8965 254.145 32.5039 255.328 31.9531V36.8926C254.25 37.4434 253.137 37.8242 251.988 38.0352C250.84 38.2461 249.469 38.3516 247.875 38.3516ZM247.471 22.4082C246.662 22.4082 245.982 22.666 245.432 23.1816C244.893 23.6855 244.576 24.4824 244.482 25.5723H250.389C250.365 24.6113 250.09 23.8438 249.562 23.2695C249.047 22.6953 248.35 22.4082 247.471 22.4082Z" fill="#363636"/>
<path d="M49.1884 27.1025L23.4918 22.037L2.00293 28.9753C1.73474 28.9539 1.49099 29.1508 1.44367 29.4392C1.39328 29.7471 1.58613 30.0396 1.87412 30.0934L1.94097 30.1058L29.2207 35.1079C31.9326 39.1539 29.9461 42.6921 29.2991 43.6497L2.13433 38.4415C2.11094 38.4371 2.08805 38.4371 2.06517 38.4365C1.80367 38.4253 1.56762 38.6161 1.52031 38.8982C1.46837 39.2059 1.65967 39.4994 1.94765 39.555L29.7103 44.9789L48.7099 36.6464C52.9376 31.432 49.1884 27.1025 49.1884 27.1025Z" fill="#35681C"/>
<path d="M49.1884 27.1025L29.2207 35.1078C31.4225 38.3934 30.5015 41.9006 29.4249 43.6894C29.5041 44.365 29.8283 45 29.8283 45L48.9619 36.6069C53.1899 31.3924 49.1884 27.1025 49.1884 27.1025Z" fill="#1F3C10"/>
<path d="M29.365 43.7537C30.012 42.7963 31.9327 39.1539 29.2208 35.1078L1.94104 30.1057L2.06524 38.4365C2.08812 38.437 2.111 38.437 2.1344 38.4414L29.365 43.7537Z" fill="white"/>
<path d="M47.7529 16.3683L22.0561 11.3027L0.567453 18.2411C0.299266 18.2197 0.0552425 18.4163 0.00793049 18.7049C-0.0422099 19.0128 0.150644 19.3053 0.438373 19.3592L0.505217 19.3718L27.785 24.3733C30.4972 28.4197 28.5106 31.9579 27.8636 32.9151L0.698843 27.7073C0.675444 27.7029 0.652554 27.7029 0.629412 27.7023C0.367911 27.6911 0.131867 27.8819 0.0845548 28.164C0.0328716 28.4716 0.22418 28.7652 0.511908 28.8207L28.2748 34.2446L47.2744 25.9122C51.5021 20.6978 47.7529 16.3683 47.7529 16.3683Z" fill="#375E97"/>
<path d="M47.7529 16.3682L27.7849 24.3733C29.987 27.6592 29.0659 31.1664 27.9893 32.9551C28.0683 33.6305 28.3928 34.2657 28.3928 34.2657L47.5264 25.8723C51.7544 20.6582 47.7529 16.3682 47.7529 16.3682Z" fill="#264269"/>
<path d="M27.9292 33.0194C28.5762 32.062 30.4972 28.4197 27.785 24.3733L0.505249 19.3718L0.629445 27.7023C0.652587 27.7028 0.675476 27.7028 0.698875 27.7072L27.9292 33.0194Z" fill="white"/>
<path d="M48.0352 5.06578L22.3383 -3.93226e-05L0.849679 6.93858C0.581235 6.91716 0.337469 7.11381 0.290157 7.40219C0.240017 7.71007 0.43287 8.00283 0.720599 8.05639L0.787456 8.06902L28.0669 13.0709C30.7789 17.1172 28.7928 20.6552 28.1459 21.6126L0.981069 16.4048C0.957671 16.4004 0.934524 16.4004 0.911639 16.3993C0.64988 16.388 0.413836 16.5792 0.366781 16.8615C0.314841 17.1688 0.506406 17.4624 0.794135 17.5179L28.557 22.9421L47.5564 14.6094C51.7844 9.39501 48.0352 5.06578 48.0352 5.06578Z" fill="#863623"/>
<path d="M48.0352 5.06575L28.067 13.0708C30.2693 16.3564 29.3483 19.8636 28.2712 21.6527C28.3506 22.328 28.6751 22.9633 28.6751 22.9633L47.8087 14.5698C52.0364 9.35571 48.0352 5.06575 48.0352 5.06575Z" fill="#FB6542"/>
<path d="M28.2114 21.7167C28.8584 20.7593 30.7789 17.1172 28.0669 13.0709L0.787476 8.06903L0.911659 16.3993C0.934544 16.4004 0.95769 16.4004 0.981089 16.4048L28.2114 21.7167Z" fill="white"/>
</svg>
