<svg width="52" height="52" viewBox="0 0 52 52" fill="none" xmlns="http://www.w3.org/2000/svg">
<path d="M50.1884 30.1025L24.4918 25.037L3.00293 31.9753C2.73474 31.9539 2.49099 32.1508 2.44367 32.4392C2.39328 32.7471 2.58613 33.0396 2.87412 33.0934L2.94097 33.1058L30.2207 38.1079C32.9326 42.1539 30.9461 45.6921 30.2991 46.6497L3.13433 41.4415C3.11094 41.4371 3.08805 41.4371 3.06517 41.4365C2.80367 41.4253 2.56762 41.6161 2.52031 41.8982C2.46837 42.2059 2.65967 42.4994 2.94765 42.555L30.7103 47.9789L49.7099 39.6464C53.9376 34.432 50.1884 30.1025 50.1884 30.1025" fill="#35681C"/>
<path d="M50.1884 30.1025L30.2207 38.1078C32.4225 41.3934 31.5015 44.9006 30.4249 46.6894C30.5041 47.365 30.8283 48 30.8283 48L49.9619 39.6069C54.1899 34.3924 50.1884 30.1025 50.1884 30.1025Z" fill="#1F3C10"/>
<path d="M30.365 46.7537C31.012 45.7963 32.9327 42.1539 30.2208 38.1078L2.94104 33.1057L3.06524 41.4365C3.08812 41.437 3.111 41.437 3.1344 41.4414L30.365 46.7537Z" fill="white"/>
<path d="M48.7529 19.3683L23.0561 14.3027L1.56745 21.2411C1.29927 21.2197 1.05524 21.4163 1.00793 21.705C0.95779 22.0128 1.15064 22.3053 1.43837 22.3592L1.50522 22.3718L28.785 27.3733C31.4972 31.4197 29.5106 34.9579 28.8636 35.9151L1.69884 30.7073C1.67544 30.7029 1.65255 30.7029 1.62941 30.7023C1.36791 30.6911 1.13187 30.8819 1.08455 31.164C1.03287 31.4716 1.22418 31.7652 1.51191 31.8207L29.2748 37.2446L48.2744 28.9122C52.5021 23.6978 48.7529 19.3683 48.7529 19.3683" fill="#375E97"/>
<path d="M48.7529 19.3682L28.7849 27.3733C30.987 30.6592 30.0659 34.1664 28.9893 35.9551C29.0683 36.6305 29.3928 37.2657 29.3928 37.2657L48.5264 28.8723C52.7544 23.6582 48.7529 19.3682 48.7529 19.3682" fill="#264269"/>
<path d="M28.9292 36.0194C29.5762 35.062 31.4972 31.4197 28.785 27.3733L1.50525 22.3718L1.62944 30.7023C1.65259 30.7028 1.67548 30.7028 1.69888 30.7072L28.9292 36.0194Z" fill="white"/>
<path d="M49.0352 8.06578L23.3383 2.99996L1.84968 9.93858C1.58124 9.91716 1.33747 10.1138 1.29016 10.4022C1.24002 10.7101 1.43287 11.0028 1.7206 11.0564L1.78746 11.069L29.0669 16.0709C31.7789 20.1172 29.7928 23.6552 29.1459 24.6126L1.98107 19.4048C1.95767 19.4004 1.93452 19.4004 1.91164 19.3993C1.64988 19.388 1.41384 19.5792 1.36678 19.8615C1.31484 20.1688 1.50641 20.4624 1.79414 20.5179L29.557 25.9421L48.5564 17.6094C52.7844 12.395 49.0352 8.06578 49.0352 8.06578" fill="#863623"/>
<path d="M49.0352 8.06575L29.067 16.0708C31.2693 19.3564 30.3483 22.8636 29.2712 24.6527C29.3506 25.328 29.6751 25.9633 29.6751 25.9633L48.8087 17.5698C53.0364 12.3557 49.0352 8.06575 49.0352 8.06575Z" fill="#FB6542"/>
<path d="M29.2114 24.7167C29.8584 23.7593 31.7789 20.1172 29.0669 16.0709L1.78748 11.069L1.91166 19.3993C1.93454 19.4004 1.95769 19.4004 1.98109 19.4048L29.2114 24.7167" fill="white"/>
</svg>
